{
  "accessors": [
    {
      "bufferView": 2,
      "componentType": 5126,
      "count": 63817,
      "max": [
        0.343968003988266,
        0.37928399443626404,
        0.18971900641918182
      ],
      "min": [
        -0.3409869968891144,
        -0.3743799924850464,
        -0.16187800467014313
      ],
      "type": "VEC3"
    },
    {
      "bufferView": 2,
      "byteOffset": 765804,
      "componentType": 5126,
      "count": 63817,
      "max": [
        0.9999275207519531,
        0.9999995231628418,
        0.9999421834945679
      ],
      "min": [
        -0.9998520016670227,
        -0.9999490976333618,
        -1.0
      ],
      "type": "VEC3"
    },
    {
      "bufferView": 3,
      "componentType": 5126,
      "count": 63817,
      "max": [
        0.9917091727256775,
        0.9998383522033691,
        0.9997905492782593,
        1.0
      ],
      "min": [
        -0.9998535513877869,
        -0.999999463558197,
        -0.9999874234199524,
        1.0
      ],
      "type": "VEC4"
    },
    {
      "bufferView": 1,
      "componentType": 5126,
      "count": 63817,
      "max": [
        0.8639209866523743,
        0.9999639987945557
      ],
      "min": [
        2.2000000171829015e-05,
        2.700000004551839e-05
      ],
      "type": "VEC2"
    },
    {
      "bufferView": 1,
      "byteOffset": 510536,
      "componentType": 5126,
      "count": 63817,
      "max": [
        0.8639209866523743,
        0.9999639987945557
      ],
      "min": [
        2.2000000171829015e-05,
        2.700000004551839e-05
      ],
      "type": "VEC2"
    },
    {
      "bufferView": 1,
      "byteOffset": 1021072,
      "componentType": 5126,
      "count": 63817,
      "max": [
        0.8639209866523743,
        0.9999639987945557
      ],
      "min": [
        2.2000000171829015e-05,
        2.700000004551839e-05
      ],
      "type": "VEC2"
    },
    {
      "bufferView": 1,
      "byteOffset": 1531608,
      "componentType": 5126,
      "count": 63817,
      "max": [
        0.8639209866523743,
        0.9999639987945557
      ],
      "min": [
        2.2000000171829015e-05,
        2.700000004551839e-05
      ],
      "type": "VEC2"
    },
    {
      "bufferView": 0,
      "componentType": 5125,
      "count": 375000,
      "type": "SCALAR"
    }
  ],
  "asset": {
    "extras": {
      "author": "anieldanjo (https://sketchfab.com/amir.danieldanjo)",
      "license": "SKETCHFAB Standard (https://sketchfab.com/licenses)",
      "source": "https://sketchfab.com/3d-models/rock-17-free-rock-pack-vol3-2-4ac9f1f5375b438ba1ce0809720d83d7",
      "title": "Rock_17_free_rock_pack_vol.3 (2)"
    },
    "generator": "Sketchfab-15.54.0",
    "version": "2.0"
  },
  "bufferViews": [
    {
      "buffer": 0,
      "byteLength": 1500000,
      "name": "floatBufferViews",
      "target": 34963
    },
    {
      "buffer": 0,
      "byteLength": 2042144,
      "byteOffset": 1500000,
      "byteStride": 8,
      "name": "floatBufferViews",
      "target": 34962
    },
    {
      "buffer": 0,
      "byteLength": 1531608,
      "byteOffset": 3542144,
      "byteStride": 12,
      "name": "floatBufferViews",
      "target": 34962
    },
    {
      "buffer": 0,
      "byteLength": 1021072,
      "byteOffset": 5073752,
      "byteStride": 16,
      "name": "floatBufferViews",
      "target": 34962
    }
  ],
  "buffers": [
    {
      "byteLength": 6094824,
      "uri": "scene.bin"
    }
  ],
  "images": [
    {
      "uri": "textures/Rock_17_baseColor.jpeg"
    },
    {
      "uri": "textures/Rock_17_metallicRoughness.png"
    },
    {
      "uri": "textures/Rock_17_normal.png"
    }
  ],
  "materials": [
    {
      "doubleSided": true,
      "name": "Rock_17",
      "normalTexture": {
        "index": 2
      },
      "pbrMetallicRoughness": {
        "baseColorTexture": {
          "index": 0
        },
        "metallicFactor": 0.0,
        "metallicRoughnessTexture": {
          "index": 1
        }
      }
    }
  ],
  "meshes": [
    {
      "name": "Object_0",
      "primitives": [
        {
          "attributes": {
            "NORMAL": 1,
            "POSITION": 0,
            "TANGENT": 2,
            "TEXCOORD_0": 3,
            "TEXCOORD_1": 4,
            "TEXCOORD_2": 5,
            "TEXCOORD_3": 6
          },
          "indices": 7,
          "material": 0,
          "mode": 4
        }
      ]
    }
  ],
  "nodes": [
    {
      "children": [
        1
      ],
      "matrix": [
        1.0,
        0.0,
        0.0,
        0.0,
        0.0,
        2.220446049250313e-16,
        -1.0,
        0.0,
        0.0,
        1.0,
        2.220446049250313e-16,
        0.0,
        0.0,
        0.0,
        0.0,
        1.0
      ],
      "name": "Sketchfab_model"
    },
    {
      "children": [
        2
      ],
      "name": "root"
    },
    {
      "children": [
        3
      ],
      "matrix": [
        1.0,
        0.0,
        0.0,
        0.0,
        0.0,
        2.220446049250313e-16,
        1.0,
        0.0,
        0.0,
        -1.0,
        2.220446049250313e-16,
        0.0,
        0.0,
        0.0,
        0.0,
        1.0
      ],
      "name": "GLTF_SceneRootNode"
    },
    {
      "children": [
        4
      ],
      "matrix": [
        1.0,
        0.0,
        0.0,
        0.0,
        0.0,
        2.220446049250313e-16,
        -1.0,
        0.0,
        0.0,
        1.0,
        2.220446049250313e-16,
        0.0,
        0.0,
        0.0,
        0.0,
        1.0
      ],
      "name": "Sketchfab_model_0"
    },
    {
      "children": [
        5
      ],
      "name": "rock_17.obj.cleaner.materialmerger.gles_1"
    },
    {
      "children": [
        6
      ],
      "name": "Object_2_2"
    },
    {
      "mesh": 0,
      "name": "Object_6"
    }
  ],
  "samplers": [
    {
      "magFilter": 9729,
      "minFilter": 9987,
      "wrapS": 10497,
      "wrapT": 10497
    }
  ],
  "scene": 0,
  "scenes": [
    {
      "name": "Sketchfab_Scene",
      "nodes": [
        0
      ]
    }
  ],
  "textures": [
    {
      "sampler": 0,
      "source": 0
    },
    {
      "sampler": 0,
      "source": 1
    },
    {
      "sampler": 0,
      "source": 2
    }
  ]
}
